<mxfile host="Electron" agent="Mozilla/5.0 (Windows NT 10.0; Win64; x64) AppleWebKit/537.36 (KHTML, like Gecko) draw.io/28.2.8 Chrome/140.0.7339.240 Electron/38.4.0 Safari/537.36" version="28.2.8">
  <diagram name="Page-1" id="csL23DFm6lsfVLEDmbIL">
    <mxGraphModel dx="576" dy="841" grid="1" gridSize="10" guides="1" tooltips="1" connect="1" arrows="1" fold="1" page="1" pageScale="1" pageWidth="850" pageHeight="1100" math="0" shadow="0">
      <root>
        <mxCell id="0" />
        <mxCell id="1" parent="0" />
        <mxCell id="HimU27nIOJU4WXV0FOoh-58" value="" style="rounded=0;whiteSpace=wrap;html=1;shadow=0;strokeWidth=1;fontSize=30;fillColor=#dae8fc;strokeColor=#6c8ebf;" parent="1" vertex="1">
          <mxGeometry x="1170" y="80" width="550" height="260" as="geometry" />
        </mxCell>
        <mxCell id="HimU27nIOJU4WXV0FOoh-59" style="edgeStyle=orthogonalEdgeStyle;rounded=0;orthogonalLoop=1;jettySize=auto;html=1;entryX=0;entryY=0.5;entryDx=0;entryDy=0;" parent="1" source="HimU27nIOJU4WXV0FOoh-62" target="HimU27nIOJU4WXV0FOoh-58" edge="1">
          <mxGeometry relative="1" as="geometry" />
        </mxCell>
        <mxCell id="HimU27nIOJU4WXV0FOoh-60" style="edgeStyle=orthogonalEdgeStyle;rounded=0;orthogonalLoop=1;jettySize=auto;html=1;entryX=0;entryY=0.5;entryDx=0;entryDy=0;" parent="1" source="HimU27nIOJU4WXV0FOoh-62" target="HimU27nIOJU4WXV0FOoh-77" edge="1">
          <mxGeometry relative="1" as="geometry" />
        </mxCell>
        <mxCell id="HimU27nIOJU4WXV0FOoh-61" style="edgeStyle=orthogonalEdgeStyle;rounded=0;orthogonalLoop=1;jettySize=auto;html=1;entryX=0;entryY=0.5;entryDx=0;entryDy=0;" parent="1" source="HimU27nIOJU4WXV0FOoh-62" target="HimU27nIOJU4WXV0FOoh-89" edge="1">
          <mxGeometry relative="1" as="geometry" />
        </mxCell>
        <mxCell id="HimU27nIOJU4WXV0FOoh-62" value="Request" style="rounded=0;whiteSpace=wrap;html=1;shadow=1;strokeWidth=1;fillColor=#f8cecc;fontSize=25;strokeColor=#b85450;fontStyle=1" parent="1" vertex="1">
          <mxGeometry x="940" y="520" width="130" height="40" as="geometry" />
        </mxCell>
        <mxCell id="HimU27nIOJU4WXV0FOoh-63" value="" style="rounded=0;whiteSpace=wrap;html=1;shadow=1;fontSize=28;fillColor=#f5f5f5;strokeColor=#666666;fontColor=#333333;" parent="1" vertex="1">
          <mxGeometry x="1185" y="245" width="180" height="80" as="geometry" />
        </mxCell>
        <mxCell id="HimU27nIOJU4WXV0FOoh-64" value="&lt;font style=&quot;font-size: 18px;&quot;&gt;posts-db&lt;/font&gt;" style="rounded=0;whiteSpace=wrap;html=1;shadow=1;fontSize=21;" parent="1" vertex="1">
          <mxGeometry x="1205" y="260" width="140" height="50" as="geometry" />
        </mxCell>
        <mxCell id="HimU27nIOJU4WXV0FOoh-65" value="Database" style="rounded=0;whiteSpace=wrap;html=1;shadow=0;fontSize=20;fillColor=#f5f5f5;strokeColor=#666666;fontColor=#333333;fontStyle=1" parent="1" vertex="1">
          <mxGeometry x="1185" y="215" width="180" height="30" as="geometry" />
        </mxCell>
        <mxCell id="HimU27nIOJU4WXV0FOoh-66" value="" style="rounded=0;whiteSpace=wrap;html=1;shadow=1;fontSize=28;fillColor=#f5f5f5;strokeColor=#666666;fontColor=#333333;" parent="1" vertex="1">
          <mxGeometry x="1185" y="125" width="520" height="80" as="geometry" />
        </mxCell>
        <mxCell id="HimU27nIOJU4WXV0FOoh-67" value="Posts" style="rounded=0;whiteSpace=wrap;html=1;shadow=1;fontSize=21;fillColor=#dae8fc;strokeColor=#6c8ebf;" parent="1" vertex="1">
          <mxGeometry x="1448.75" y="138" width="236.25" height="54" as="geometry" />
        </mxCell>
        <mxCell id="HimU27nIOJU4WXV0FOoh-68" value="Auth&amp;nbsp;&lt;div&gt;Middleware&lt;/div&gt;" style="rounded=0;whiteSpace=wrap;html=1;shadow=1;fontSize=18;" parent="1" vertex="1">
          <mxGeometry x="1205" y="138" width="110" height="54" as="geometry" />
        </mxCell>
        <mxCell id="HimU27nIOJU4WXV0FOoh-69" style="edgeStyle=orthogonalEdgeStyle;rounded=0;orthogonalLoop=1;jettySize=auto;html=1;exitX=1;exitY=0.5;exitDx=0;exitDy=0;fontSize=22;" parent="1" source="HimU27nIOJU4WXV0FOoh-70" target="HimU27nIOJU4WXV0FOoh-67" edge="1">
          <mxGeometry relative="1" as="geometry" />
        </mxCell>
        <mxCell id="HimU27nIOJU4WXV0FOoh-70" value="Router" style="rounded=0;whiteSpace=wrap;html=1;shadow=1;fontSize=18;" parent="1" vertex="1">
          <mxGeometry x="1335" y="138" width="80" height="54" as="geometry" />
        </mxCell>
        <mxCell id="HimU27nIOJU4WXV0FOoh-71" style="edgeStyle=orthogonalEdgeStyle;rounded=0;orthogonalLoop=1;jettySize=auto;html=1;exitX=1;exitY=0.5;exitDx=0;exitDy=0;fontSize=22;" parent="1" source="HimU27nIOJU4WXV0FOoh-68" target="HimU27nIOJU4WXV0FOoh-70" edge="1">
          <mxGeometry relative="1" as="geometry" />
        </mxCell>
        <mxCell id="HimU27nIOJU4WXV0FOoh-72" value="Service A" style="rounded=0;whiteSpace=wrap;html=1;shadow=0;fontSize=20;fillColor=#f5f5f5;strokeColor=#666666;fontColor=#333333;fontStyle=1" parent="1" vertex="1">
          <mxGeometry x="1185" y="95" width="520" height="30" as="geometry" />
        </mxCell>
        <mxCell id="HimU27nIOJU4WXV0FOoh-73" style="edgeStyle=orthogonalEdgeStyle;rounded=0;orthogonalLoop=1;jettySize=auto;html=1;" parent="1" source="HimU27nIOJU4WXV0FOoh-67" edge="1">
          <mxGeometry relative="1" as="geometry">
            <mxPoint x="1365" y="285" as="targetPoint" />
            <Array as="points">
              <mxPoint x="1585" y="285" />
            </Array>
          </mxGeometry>
        </mxCell>
        <mxCell id="HimU27nIOJU4WXV0FOoh-74" value="" style="rounded=0;whiteSpace=wrap;html=1;shadow=1;fontSize=28;fillColor=#f5f5f5;strokeColor=#666666;fontColor=#333333;" parent="1" vertex="1">
          <mxGeometry x="1770" y="110" width="180" height="900" as="geometry" />
        </mxCell>
        <mxCell id="HimU27nIOJU4WXV0FOoh-75" value="Event Bus" style="rounded=0;whiteSpace=wrap;html=1;shadow=0;fontSize=20;fillColor=#f5f5f5;strokeColor=#666666;fontColor=#333333;fontStyle=1" parent="1" vertex="1">
          <mxGeometry x="1770" y="80" width="180" height="30" as="geometry" />
        </mxCell>
        <mxCell id="HimU27nIOJU4WXV0FOoh-76" value="&lt;font style=&quot;font-weight: normal; font-size: 15px;&quot;&gt;Posts event #1&lt;/font&gt;" style="rounded=0;whiteSpace=wrap;html=1;shadow=1;strokeWidth=1;fillColor=#f8cecc;fontSize=25;strokeColor=#b85450;fontStyle=1;horizontal=1;labelPosition=center;verticalLabelPosition=middle;align=center;verticalAlign=middle;spacing=2;spacingBottom=6;" parent="1" vertex="1">
          <mxGeometry x="1785" y="140" width="150" height="50" as="geometry" />
        </mxCell>
        <mxCell id="HimU27nIOJU4WXV0FOoh-77" value="" style="rounded=0;whiteSpace=wrap;html=1;shadow=0;strokeWidth=1;fontSize=30;fillColor=#fff2cc;strokeColor=#d6b656;" parent="1" vertex="1">
          <mxGeometry x="1170" y="410" width="550" height="260" as="geometry" />
        </mxCell>
        <mxCell id="HimU27nIOJU4WXV0FOoh-78" value="" style="rounded=0;whiteSpace=wrap;html=1;shadow=1;fontSize=28;fillColor=#f5f5f5;strokeColor=#666666;fontColor=#333333;" parent="1" vertex="1">
          <mxGeometry x="1185" y="575" width="180" height="80" as="geometry" />
        </mxCell>
        <mxCell id="HimU27nIOJU4WXV0FOoh-79" value="&lt;font style=&quot;font-size: 18px;&quot;&gt;comments-db&lt;/font&gt;" style="rounded=0;whiteSpace=wrap;html=1;shadow=1;fontSize=21;" parent="1" vertex="1">
          <mxGeometry x="1205" y="590" width="140" height="50" as="geometry" />
        </mxCell>
        <mxCell id="HimU27nIOJU4WXV0FOoh-80" value="Database" style="rounded=0;whiteSpace=wrap;html=1;shadow=0;fontSize=20;fillColor=#f5f5f5;strokeColor=#666666;fontColor=#333333;fontStyle=1" parent="1" vertex="1">
          <mxGeometry x="1185" y="545" width="180" height="30" as="geometry" />
        </mxCell>
        <mxCell id="HimU27nIOJU4WXV0FOoh-81" value="" style="rounded=0;whiteSpace=wrap;html=1;shadow=1;fontSize=28;fillColor=#f5f5f5;strokeColor=#666666;fontColor=#333333;" parent="1" vertex="1">
          <mxGeometry x="1185" y="455" width="520" height="80" as="geometry" />
        </mxCell>
        <mxCell id="HimU27nIOJU4WXV0FOoh-82" value="Comments" style="rounded=0;whiteSpace=wrap;html=1;shadow=1;fontSize=21;fillColor=#fff2cc;strokeColor=#d6b656;" parent="1" vertex="1">
          <mxGeometry x="1448.75" y="468" width="236.25" height="54" as="geometry" />
        </mxCell>
        <mxCell id="HimU27nIOJU4WXV0FOoh-83" value="Auth&amp;nbsp;&lt;div&gt;Middleware&lt;/div&gt;" style="rounded=0;whiteSpace=wrap;html=1;shadow=1;fontSize=18;" parent="1" vertex="1">
          <mxGeometry x="1205" y="468" width="110" height="54" as="geometry" />
        </mxCell>
        <mxCell id="HimU27nIOJU4WXV0FOoh-84" style="edgeStyle=orthogonalEdgeStyle;rounded=0;orthogonalLoop=1;jettySize=auto;html=1;exitX=1;exitY=0.5;exitDx=0;exitDy=0;fontSize=22;" parent="1" source="HimU27nIOJU4WXV0FOoh-85" target="HimU27nIOJU4WXV0FOoh-82" edge="1">
          <mxGeometry relative="1" as="geometry" />
        </mxCell>
        <mxCell id="HimU27nIOJU4WXV0FOoh-85" value="Router" style="rounded=0;whiteSpace=wrap;html=1;shadow=1;fontSize=18;" parent="1" vertex="1">
          <mxGeometry x="1335" y="468" width="80" height="54" as="geometry" />
        </mxCell>
        <mxCell id="HimU27nIOJU4WXV0FOoh-86" style="edgeStyle=orthogonalEdgeStyle;rounded=0;orthogonalLoop=1;jettySize=auto;html=1;exitX=1;exitY=0.5;exitDx=0;exitDy=0;fontSize=22;" parent="1" source="HimU27nIOJU4WXV0FOoh-83" target="HimU27nIOJU4WXV0FOoh-85" edge="1">
          <mxGeometry relative="1" as="geometry" />
        </mxCell>
        <mxCell id="HimU27nIOJU4WXV0FOoh-87" value="Service B" style="rounded=0;whiteSpace=wrap;html=1;shadow=0;fontSize=20;fillColor=#f5f5f5;strokeColor=#666666;fontColor=#333333;fontStyle=1" parent="1" vertex="1">
          <mxGeometry x="1185" y="425" width="520" height="30" as="geometry" />
        </mxCell>
        <mxCell id="HimU27nIOJU4WXV0FOoh-88" style="edgeStyle=orthogonalEdgeStyle;rounded=0;orthogonalLoop=1;jettySize=auto;html=1;" parent="1" source="HimU27nIOJU4WXV0FOoh-82" edge="1">
          <mxGeometry relative="1" as="geometry">
            <mxPoint x="1365" y="615" as="targetPoint" />
            <Array as="points">
              <mxPoint x="1585" y="615" />
            </Array>
          </mxGeometry>
        </mxCell>
        <mxCell id="HimU27nIOJU4WXV0FOoh-89" value="" style="rounded=0;whiteSpace=wrap;html=1;shadow=0;strokeWidth=1;fontSize=30;fillColor=#d5e8d4;strokeColor=#82b366;" parent="1" vertex="1">
          <mxGeometry x="1170" y="750" width="550" height="260" as="geometry" />
        </mxCell>
        <mxCell id="HimU27nIOJU4WXV0FOoh-90" value="" style="rounded=0;whiteSpace=wrap;html=1;shadow=1;fontSize=28;fillColor=#f5f5f5;strokeColor=#666666;fontColor=#333333;" parent="1" vertex="1">
          <mxGeometry x="1185" y="915" width="180" height="80" as="geometry" />
        </mxCell>
        <mxCell id="HimU27nIOJU4WXV0FOoh-91" value="&lt;font style=&quot;font-size: 18px;&quot;&gt;moderation-db&lt;/font&gt;" style="rounded=0;whiteSpace=wrap;html=1;shadow=1;fontSize=21;" parent="1" vertex="1">
          <mxGeometry x="1205" y="930" width="140" height="50" as="geometry" />
        </mxCell>
        <mxCell id="HimU27nIOJU4WXV0FOoh-92" value="Database" style="rounded=0;whiteSpace=wrap;html=1;shadow=0;fontSize=20;fillColor=#f5f5f5;strokeColor=#666666;fontColor=#333333;fontStyle=1" parent="1" vertex="1">
          <mxGeometry x="1185" y="885" width="180" height="30" as="geometry" />
        </mxCell>
        <mxCell id="HimU27nIOJU4WXV0FOoh-93" value="" style="rounded=0;whiteSpace=wrap;html=1;shadow=1;fontSize=28;fillColor=#f5f5f5;strokeColor=#666666;fontColor=#333333;" parent="1" vertex="1">
          <mxGeometry x="1185" y="795" width="520" height="80" as="geometry" />
        </mxCell>
        <mxCell id="HimU27nIOJU4WXV0FOoh-94" value="Moderation" style="rounded=0;whiteSpace=wrap;html=1;shadow=1;fontSize=21;fillColor=#d5e8d4;strokeColor=#82b366;" parent="1" vertex="1">
          <mxGeometry x="1448.75" y="808" width="236.25" height="54" as="geometry" />
        </mxCell>
        <mxCell id="HimU27nIOJU4WXV0FOoh-95" value="Auth&amp;nbsp;&lt;div&gt;Middleware&lt;/div&gt;" style="rounded=0;whiteSpace=wrap;html=1;shadow=1;fontSize=18;" parent="1" vertex="1">
          <mxGeometry x="1205" y="808" width="110" height="54" as="geometry" />
        </mxCell>
        <mxCell id="HimU27nIOJU4WXV0FOoh-96" style="edgeStyle=orthogonalEdgeStyle;rounded=0;orthogonalLoop=1;jettySize=auto;html=1;exitX=1;exitY=0.5;exitDx=0;exitDy=0;fontSize=22;" parent="1" source="HimU27nIOJU4WXV0FOoh-97" target="HimU27nIOJU4WXV0FOoh-94" edge="1">
          <mxGeometry relative="1" as="geometry" />
        </mxCell>
        <mxCell id="HimU27nIOJU4WXV0FOoh-97" value="Router" style="rounded=0;whiteSpace=wrap;html=1;shadow=1;fontSize=18;" parent="1" vertex="1">
          <mxGeometry x="1335" y="808" width="80" height="54" as="geometry" />
        </mxCell>
        <mxCell id="HimU27nIOJU4WXV0FOoh-98" style="edgeStyle=orthogonalEdgeStyle;rounded=0;orthogonalLoop=1;jettySize=auto;html=1;exitX=1;exitY=0.5;exitDx=0;exitDy=0;fontSize=22;" parent="1" source="HimU27nIOJU4WXV0FOoh-95" target="HimU27nIOJU4WXV0FOoh-97" edge="1">
          <mxGeometry relative="1" as="geometry" />
        </mxCell>
        <mxCell id="HimU27nIOJU4WXV0FOoh-99" value="Service C" style="rounded=0;whiteSpace=wrap;html=1;shadow=0;fontSize=20;fillColor=#f5f5f5;strokeColor=#666666;fontColor=#333333;fontStyle=1" parent="1" vertex="1">
          <mxGeometry x="1185" y="765" width="520" height="30" as="geometry" />
        </mxCell>
        <mxCell id="HimU27nIOJU4WXV0FOoh-100" style="edgeStyle=orthogonalEdgeStyle;rounded=0;orthogonalLoop=1;jettySize=auto;html=1;" parent="1" source="HimU27nIOJU4WXV0FOoh-94" edge="1">
          <mxGeometry relative="1" as="geometry">
            <mxPoint x="1365" y="955" as="targetPoint" />
            <Array as="points">
              <mxPoint x="1585" y="955" />
            </Array>
          </mxGeometry>
        </mxCell>
        <mxCell id="HimU27nIOJU4WXV0FOoh-101" value="&lt;font style=&quot;font-weight: normal; font-size: 15px;&quot;&gt;Posts event #2&lt;/font&gt;" style="rounded=0;whiteSpace=wrap;html=1;shadow=1;strokeWidth=1;fillColor=#f8cecc;fontSize=25;strokeColor=#b85450;fontStyle=1;horizontal=1;labelPosition=center;verticalLabelPosition=middle;align=center;verticalAlign=middle;spacing=2;spacingBottom=6;" parent="1" vertex="1">
          <mxGeometry x="1785" y="200" width="150" height="50" as="geometry" />
        </mxCell>
        <mxCell id="HimU27nIOJU4WXV0FOoh-102" value="&lt;font style=&quot;font-weight: normal; font-size: 15px;&quot;&gt;Posts event #3&lt;/font&gt;" style="rounded=0;whiteSpace=wrap;html=1;shadow=1;strokeWidth=1;fillColor=#f8cecc;fontSize=25;strokeColor=#b85450;fontStyle=1;horizontal=1;labelPosition=center;verticalLabelPosition=middle;align=center;verticalAlign=middle;spacing=2;spacingBottom=6;" parent="1" vertex="1">
          <mxGeometry x="1785" y="260" width="150" height="50" as="geometry" />
        </mxCell>
        <mxCell id="HimU27nIOJU4WXV0FOoh-103" value="&lt;font style=&quot;font-weight: normal; font-size: 15px;&quot;&gt;Comments event #1&lt;/font&gt;" style="rounded=0;whiteSpace=wrap;html=1;shadow=1;strokeWidth=1;fillColor=#f8cecc;fontSize=25;strokeColor=#b85450;fontStyle=1;horizontal=1;labelPosition=center;verticalLabelPosition=middle;align=center;verticalAlign=middle;spacing=2;spacingBottom=6;" parent="1" vertex="1">
          <mxGeometry x="1785" y="468" width="150" height="50" as="geometry" />
        </mxCell>
        <mxCell id="HimU27nIOJU4WXV0FOoh-104" value="&lt;font style=&quot;font-weight: normal; font-size: 15px;&quot;&gt;Comments event #2&lt;/font&gt;" style="rounded=0;whiteSpace=wrap;html=1;shadow=1;strokeWidth=1;fillColor=#f8cecc;fontSize=25;strokeColor=#b85450;fontStyle=1;horizontal=1;labelPosition=center;verticalLabelPosition=middle;align=center;verticalAlign=middle;spacing=2;spacingBottom=6;" parent="1" vertex="1">
          <mxGeometry x="1785" y="528" width="150" height="50" as="geometry" />
        </mxCell>
        <mxCell id="HimU27nIOJU4WXV0FOoh-105" value="&lt;font style=&quot;font-weight: normal; font-size: 15px;&quot;&gt;Comments event #3&lt;/font&gt;" style="rounded=0;whiteSpace=wrap;html=1;shadow=1;strokeWidth=1;fillColor=#f8cecc;fontSize=25;strokeColor=#b85450;fontStyle=1;horizontal=1;labelPosition=center;verticalLabelPosition=middle;align=center;verticalAlign=middle;spacing=2;spacingBottom=6;" parent="1" vertex="1">
          <mxGeometry x="1785" y="588" width="150" height="50" as="geometry" />
        </mxCell>
        <mxCell id="HimU27nIOJU4WXV0FOoh-106" value="&lt;font style=&quot;font-weight: normal; font-size: 15px;&quot;&gt;Comments event #4&lt;/font&gt;" style="rounded=0;whiteSpace=wrap;html=1;shadow=1;strokeWidth=1;fillColor=#f8cecc;fontSize=25;strokeColor=#b85450;fontStyle=1;horizontal=1;labelPosition=center;verticalLabelPosition=middle;align=center;verticalAlign=middle;spacing=2;spacingBottom=6;" parent="1" vertex="1">
          <mxGeometry x="1785" y="648" width="150" height="50" as="geometry" />
        </mxCell>
        <mxCell id="HimU27nIOJU4WXV0FOoh-107" value="&lt;font style=&quot;font-weight: normal; font-size: 15px;&quot;&gt;Moderation event #1&lt;/font&gt;" style="rounded=0;whiteSpace=wrap;html=1;shadow=1;strokeWidth=1;fillColor=#f8cecc;fontSize=25;strokeColor=#b85450;fontStyle=1;horizontal=1;labelPosition=center;verticalLabelPosition=middle;align=center;verticalAlign=middle;spacing=2;spacingBottom=6;" parent="1" vertex="1">
          <mxGeometry x="1785" y="808" width="150" height="50" as="geometry" />
        </mxCell>
        <mxCell id="HimU27nIOJU4WXV0FOoh-108" value="&lt;font style=&quot;font-weight: normal; font-size: 15px;&quot;&gt;Moderation event #2&lt;/font&gt;" style="rounded=0;whiteSpace=wrap;html=1;shadow=1;strokeWidth=1;fillColor=#f8cecc;fontSize=25;strokeColor=#b85450;fontStyle=1;horizontal=1;labelPosition=center;verticalLabelPosition=middle;align=center;verticalAlign=middle;spacing=2;spacingBottom=6;" parent="1" vertex="1">
          <mxGeometry x="1785" y="868" width="150" height="50" as="geometry" />
        </mxCell>
        <mxCell id="HimU27nIOJU4WXV0FOoh-109" style="edgeStyle=orthogonalEdgeStyle;rounded=0;orthogonalLoop=1;jettySize=auto;html=1;entryX=0.004;entryY=0.061;entryDx=0;entryDy=0;entryPerimeter=0;" parent="1" source="HimU27nIOJU4WXV0FOoh-67" target="HimU27nIOJU4WXV0FOoh-74" edge="1">
          <mxGeometry relative="1" as="geometry" />
        </mxCell>
        <mxCell id="HimU27nIOJU4WXV0FOoh-110" style="edgeStyle=orthogonalEdgeStyle;rounded=0;orthogonalLoop=1;jettySize=auto;html=1;" parent="1" source="HimU27nIOJU4WXV0FOoh-94" edge="1">
          <mxGeometry relative="1" as="geometry">
            <mxPoint x="1770" y="835" as="targetPoint" />
          </mxGeometry>
        </mxCell>
        <mxCell id="HimU27nIOJU4WXV0FOoh-111" style="edgeStyle=orthogonalEdgeStyle;rounded=0;orthogonalLoop=1;jettySize=auto;html=1;entryX=1;entryY=0.5;entryDx=0;entryDy=0;" parent="1" source="HimU27nIOJU4WXV0FOoh-74" target="HimU27nIOJU4WXV0FOoh-94" edge="1">
          <mxGeometry relative="1" as="geometry">
            <Array as="points">
              <mxPoint x="1740" y="835" />
              <mxPoint x="1740" y="835" />
            </Array>
          </mxGeometry>
        </mxCell>
        <mxCell id="HimU27nIOJU4WXV0FOoh-112" style="edgeStyle=orthogonalEdgeStyle;rounded=0;orthogonalLoop=1;jettySize=auto;html=1;entryX=1;entryY=0.5;entryDx=0;entryDy=0;" parent="1" source="HimU27nIOJU4WXV0FOoh-74" target="HimU27nIOJU4WXV0FOoh-67" edge="1">
          <mxGeometry relative="1" as="geometry">
            <Array as="points">
              <mxPoint x="1740" y="165" />
              <mxPoint x="1740" y="165" />
            </Array>
          </mxGeometry>
        </mxCell>
        <mxCell id="HimU27nIOJU4WXV0FOoh-113" style="edgeStyle=orthogonalEdgeStyle;rounded=0;orthogonalLoop=1;jettySize=auto;html=1;entryX=-0.002;entryY=0.428;entryDx=0;entryDy=0;entryPerimeter=0;" parent="1" source="HimU27nIOJU4WXV0FOoh-82" target="HimU27nIOJU4WXV0FOoh-74" edge="1">
          <mxGeometry relative="1" as="geometry" />
        </mxCell>
        <mxCell id="HimU27nIOJU4WXV0FOoh-114" style="edgeStyle=orthogonalEdgeStyle;rounded=0;orthogonalLoop=1;jettySize=auto;html=1;entryX=1;entryY=0.5;entryDx=0;entryDy=0;" parent="1" source="HimU27nIOJU4WXV0FOoh-74" target="HimU27nIOJU4WXV0FOoh-82" edge="1">
          <mxGeometry relative="1" as="geometry">
            <Array as="points">
              <mxPoint x="1740" y="495" />
              <mxPoint x="1740" y="495" />
            </Array>
          </mxGeometry>
        </mxCell>
      </root>
    </mxGraphModel>
  </diagram>
</mxfile>
